<svg xmlns="http://www.w3.org/2000/svg" viewBox="0 0 960 520" width="960" height="520">
  <defs>
    <style>
      @import url('https://fonts.googleapis.com/css2?family=Inter:wght@400;500;600;700&amp;display=swap');
      text { font-family: 'Inter', system-ui, -apple-system, sans-serif; }
    </style>
    <linearGradient id="pkv-fill" x1="0" y1="0" x2="0" y2="1">
      <stop offset="0%" stop-color="#D4A017" stop-opacity="0.12"/>
      <stop offset="100%" stop-color="#D4A017" stop-opacity="0.01"/>
    </linearGradient>
    <linearGradient id="gkv-fill" x1="0" y1="0" x2="0" y2="1">
      <stop offset="0%" stop-color="#6B7280" stop-opacity="0.08"/>
      <stop offset="100%" stop-color="#6B7280" stop-opacity="0.01"/>
    </linearGradient>
    <filter id="shadow" x="-5%" y="-5%" width="110%" height="120%">
      <feDropShadow dx="0" dy="1" stdDeviation="2" flood-color="#000" flood-opacity="0.06"/>
    </filter>
  </defs>
  
  <!-- Background -->
  <rect width="960" height="520" rx="12" fill="#FFFFFF"/>


  <!-- Title -->
  <text x="55" y="38" fill="#002046" font-size="22" font-weight="700" letter-spacing="-0.3">Beitragsentwicklung PKV vs. GKV</text>
  <text x="55" y="58" fill="#44474e" font-size="12.5" font-weight="400">Indexierte Prämien- und Beitragsbelastung je Versicherten (2005 = 100)</text>


  <!-- Legend (minimal, da Labels an den Linien stehen) -->
  <line x1="55" y1="80" x2="79" y2="80" stroke="#D4A017" stroke-width="2.5" stroke-linecap="round"/>
  <text x="85" y="84" fill="#44474e" font-size="11.5" font-weight="500">PKV</text>
  <line x1="130" y1="80" x2="154" y2="80" stroke="#6B7280" stroke-width="2.5" stroke-linecap="round"/>
  <text x="160" y="84" fill="#44474e" font-size="11.5" font-weight="500">GKV*</text>

  <line x1="55" y1="423.8" x2="860" y2="423.8" stroke="#E5E7EB" stroke-width="0.7"/>
  <line x1="55" y1="423.8" x2="860" y2="423.8" stroke="#CBD5E1" stroke-width="1.2"/>
  <text x="47" y="427.8" fill="#9CA3AF" font-size="10.5" text-anchor="end">100</text>
  <line x1="55" y1="371.5" x2="860" y2="371.5" stroke="#E5E7EB" stroke-width="0.7"/>
  <text x="47" y="375.5" fill="#9CA3AF" font-size="10.5" text-anchor="end">120</text>
  <line x1="55" y1="319.2" x2="860" y2="319.2" stroke="#E5E7EB" stroke-width="0.7"/>
  <text x="47" y="323.2" fill="#9CA3AF" font-size="10.5" text-anchor="end">140</text>
  <line x1="55" y1="266.9" x2="860" y2="266.9" stroke="#E5E7EB" stroke-width="0.7"/>
  <text x="47" y="270.9" fill="#9CA3AF" font-size="10.5" text-anchor="end">160</text>
  <line x1="55" y1="214.6" x2="860" y2="214.6" stroke="#E5E7EB" stroke-width="0.7"/>
  <text x="47" y="218.6" fill="#9CA3AF" font-size="10.5" text-anchor="end">180</text>
  <line x1="55" y1="162.3" x2="860" y2="162.3" stroke="#E5E7EB" stroke-width="0.7"/>
  <text x="47" y="166.3" fill="#9CA3AF" font-size="10.5" text-anchor="end">200</text>
  <line x1="55" y1="110.0" x2="860" y2="110.0" stroke="#E5E7EB" stroke-width="0.7"/>
  <text x="47" y="114.0" fill="#9CA3AF" font-size="10.5" text-anchor="end">220</text>
  <text x="55.0" y="472" fill="#9CA3AF" font-size="11.5" font-weight="500" text-anchor="middle">2005</text>
  <line x1="55.0" y1="110" x2="55.0" y2="450" stroke="#E5E7EB" stroke-width="0.5" stroke-dasharray="4,4"/>
  <text x="256.2" y="472" fill="#9CA3AF" font-size="11.5" font-weight="500" text-anchor="middle">2010</text>
  <line x1="256.2" y1="110" x2="256.2" y2="450" stroke="#E5E7EB" stroke-width="0.5" stroke-dasharray="4,4"/>
  <text x="457.5" y="472" fill="#9CA3AF" font-size="11.5" font-weight="500" text-anchor="middle">2015</text>
  <line x1="457.5" y1="110" x2="457.5" y2="450" stroke="#E5E7EB" stroke-width="0.5" stroke-dasharray="4,4"/>
  <text x="658.8" y="472" fill="#9CA3AF" font-size="11.5" font-weight="500" text-anchor="middle">2020</text>
  <line x1="658.8" y1="110" x2="658.8" y2="450" stroke="#E5E7EB" stroke-width="0.5" stroke-dasharray="4,4"/>
  <text x="860.0" y="472" fill="#9CA3AF" font-size="11.5" font-weight="500" text-anchor="middle">2025</text>
  <line x1="860.0" y1="110" x2="860.0" y2="450" stroke="#E5E7EB" stroke-width="0.5" stroke-dasharray="4,4"/>
  <path d="M55.0,423.8 L55.0,423.8 L95.2,415.0 L135.5,405.8 L175.8,396.1 L216.0,386.4 L256.2,376.2 L296.5,365.5 L336.8,354.8 L377.0,343.6 L417.2,331.8 L457.5,319.8 L497.8,304.6 L538.0,288.9 L578.2,272.7 L618.5,255.7 L658.8,237.9 L699.0,219.6 L739.2,200.5 L779.5,180.4 L819.8,159.7 L860.0,138.0 L860.0,450.0 L55.0,450.0 Z" fill="url(#gkv-fill)"/>
  <path d="M55.0,423.8 L55.0,423.8 L95.2,418.1 L135.5,412.1 L175.8,405.8 L216.0,399.5 L256.2,393.2 L296.5,386.7 L336.8,379.9 L377.0,373.1 L417.2,366.0 L457.5,359.0 L497.8,346.2 L538.0,332.8 L578.2,319.0 L618.5,304.6 L658.8,289.7 L699.0,274.0 L739.2,257.8 L779.5,241.0 L819.8,223.5 L860.0,205.5 L860.0,450.0 L55.0,450.0 Z" fill="url(#pkv-fill)"/>
  <path d="M55.0,423.8 L95.2,415.0 L135.5,405.8 L175.8,396.1 L216.0,386.4 L256.2,376.2 L296.5,365.5 L336.8,354.8 L377.0,343.6 L417.2,331.8 L457.5,319.8 L497.8,304.6 L538.0,288.9 L578.2,272.7 L618.5,255.7 L658.8,237.9 L699.0,219.6 L739.2,200.5 L779.5,180.4 L819.8,159.7 L860.0,138.0" fill="none" stroke="#6B7280" stroke-width="2.8" stroke-linecap="round" stroke-linejoin="round"/>
  <path d="M55.0,423.8 L95.2,418.1 L135.5,412.1 L175.8,405.8 L216.0,399.5 L256.2,393.2 L296.5,386.7 L336.8,379.9 L377.0,373.1 L417.2,366.0 L457.5,359.0 L497.8,346.2 L538.0,332.8 L578.2,319.0 L618.5,304.6 L658.8,289.7 L699.0,274.0 L739.2,257.8 L779.5,241.0 L819.8,223.5 L860.0,205.5" fill="none" stroke="#D4A017" stroke-width="2.8" stroke-linecap="round" stroke-linejoin="round"/>
  <circle cx="860.0" cy="138.0" r="4.5" fill="#6B7280" stroke="white" stroke-width="2"/>
  <circle cx="860.0" cy="205.5" r="4.5" fill="#D4A017" stroke="white" stroke-width="2"/>
  <circle cx="55.0" cy="423.8" r="3.5" fill="#D4A017" stroke="white" stroke-width="1.5"/>
  <circle cx="55.0" cy="423.8" r="3.5" fill="#6B7280" stroke="white" stroke-width="1.5"/>

  <!-- GKV rate label (positioned above GKV line around 2013) -->
  <rect x="280" y="300" width="194" height="36" rx="6" fill="#F0F1F3" stroke="#D1D5DB" stroke-width="0.7" filter="url(#shadow)"/>
  <text x="377" y="324" fill="#6B7280" font-size="13" font-weight="700" text-anchor="middle">GKV: ⌀ 3,8 % <tspan font-size="10.5" font-weight="500" fill="#44474e">pro Jahr</tspan></text>

  <!-- PKV rate label (positioned above PKV line around 2019) -->
  <rect x="523" y="275" width="190" height="36" rx="6" fill="#FDF6E3" stroke="#E5D9B8" stroke-width="0.7" filter="url(#shadow)"/>
  <text x="618" y="299" fill="#B8860B" font-size="13" font-weight="700" text-anchor="middle">PKV: ⌀ 3,1 % <tspan font-size="10.5" font-weight="500" fill="#44474e">pro Jahr</tspan></text>


  <text x="865.0" y="142.0" fill="#6B7280" font-size="13" font-weight="700">209.3</text>
  <text x="865.0" y="209.5" fill="#B8860B" font-size="13" font-weight="700">183.5</text>


  <text x="55" y="500" fill="#9CA3AF" font-size="9.5">*ohne Bundeszuschuss</text>
  <text x="55" y="512" fill="#9CA3AF" font-size="9.5">Quelle: WIP-Kurzanalyse 2024 (BMG, BAS, GBE, PKV-Verband). 2024/2025 extrapoliert.</text>

</svg>