<svg xmlns="http://www.w3.org/2000/svg" viewBox="0 0 400 720" width="400" height="720">
<defs><style>
@import url('https://fonts.googleapis.com/css2?family=Inter:wght@400;500;600;700;800&amp;display=swap');
text { font-family: 'Inter', system-ui, sans-serif; }
</style></defs>
<rect width="400" height="720" rx="12" fill="#FFFFFF"/>
<text x="200" y="36" fill="#002046" font-size="18" font-weight="700" text-anchor="middle">Leistungen im Vergleich</text>
<text x="200" y="56" fill="#44474e" font-size="11" text-anchor="middle">PKV-Volltarif vs. GKV-Standard</text>
<rect x="20" y="80" width="360" height="44" fill="#002046"/>
<text x="40" y="108" fill="white" font-size="13" font-weight="600">Leistung</text>
<text x="280" y="108" fill="#D4A017" font-size="13" font-weight="700" text-anchor="middle">PKV</text>
<text x="350" y="108" fill="#87a0cd" font-size="13" font-weight="600" text-anchor="middle">GKV</text>
<rect x="20" y="124" width="360" height="48" fill="#f3f4f5"/>
<text x="40" y="153" fill="#002046" font-size="13" font-weight="500">Chefarztbehandlung</text>
<text x="280" y="154" fill="#166534" font-size="16" font-weight="700" text-anchor="middle">✓</text>
<text x="350" y="154" fill="#991b1b" font-size="16" font-weight="700" text-anchor="middle">✗</text>
<rect x="20" y="172" width="360" height="48" fill="#FFFFFF"/>
<text x="40" y="201" fill="#002046" font-size="13" font-weight="500">Einzelzimmer</text>
<text x="280" y="202" fill="#166534" font-size="16" font-weight="700" text-anchor="middle">✓</text>
<text x="350" y="202" fill="#991b1b" font-size="16" font-weight="700" text-anchor="middle">✗</text>
<rect x="20" y="220" width="360" height="48" fill="#f3f4f5"/>
<text x="40" y="249" fill="#002046" font-size="13" font-weight="500">Zahnersatz 80-100 %</text>
<text x="280" y="250" fill="#166534" font-size="16" font-weight="700" text-anchor="middle">✓</text>
<text x="350" y="250" fill="#44474e" font-size="16" font-weight="700" text-anchor="middle">60 %</text>
<rect x="20" y="268" width="360" height="48" fill="#FFFFFF"/>
<text x="40" y="297" fill="#002046" font-size="13" font-weight="500">Heilpraktiker</text>
<text x="280" y="298" fill="#166534" font-size="16" font-weight="700" text-anchor="middle">✓</text>
<text x="350" y="298" fill="#991b1b" font-size="16" font-weight="700" text-anchor="middle">✗</text>
<rect x="20" y="316" width="360" height="48" fill="#f3f4f5"/>
<text x="40" y="345" fill="#002046" font-size="13" font-weight="500">Sehhilfen</text>
<text x="280" y="346" fill="#166534" font-size="16" font-weight="700" text-anchor="middle">✓</text>
<text x="350" y="346" fill="#991b1b" font-size="16" font-weight="700" text-anchor="middle">✗</text>
<rect x="20" y="364" width="360" height="48" fill="#FFFFFF"/>
<text x="40" y="393" fill="#002046" font-size="13" font-weight="500">Freie Arztwahl</text>
<text x="280" y="394" fill="#166534" font-size="16" font-weight="700" text-anchor="middle">✓</text>
<text x="350" y="394" fill="#991b1b" font-size="16" font-weight="700" text-anchor="middle">✗</text>
<rect x="20" y="412" width="360" height="48" fill="#f3f4f5"/>
<text x="40" y="441" fill="#002046" font-size="13" font-weight="500">Kurze Wartezeiten</text>
<text x="280" y="442" fill="#166534" font-size="16" font-weight="700" text-anchor="middle">✓</text>
<text x="350" y="442" fill="#991b1b" font-size="16" font-weight="700" text-anchor="middle">✗</text>

</svg>