<svg xmlns="http://www.w3.org/2000/svg" viewBox="0 0 400 720" width="400" height="720">
<defs><style>
@import url('https://fonts.googleapis.com/css2?family=Inter:wght@400;500;600;700;800&amp;display=swap');
text { font-family: 'Inter', system-ui, sans-serif; }
</style></defs>
<rect width="400" height="720" rx="12" fill="#FFFFFF"/>
<text x="200" y="36" fill="#002046" font-size="18" font-weight="700" text-anchor="middle">Für wen lohnt sich die PKV?</text>
<rect x="30" y="100" width="340" height="56" rx="10" fill="#f3f4f5"/>
<circle cx="62" cy="126" r="16" fill="#D4A017"/>
<text x="62" y="131" fill="white" font-size="15" font-weight="700" text-anchor="middle">✓</text>
<text x="90" y="131" fill="#002046" font-size="14" font-weight="600">Bruttoeinkommen über 77.400 €</text>
<rect x="30" y="172" width="340" height="56" rx="10" fill="#f3f4f5"/>
<circle cx="62" cy="198" r="16" fill="#D4A017"/>
<text x="62" y="203" fill="white" font-size="15" font-weight="700" text-anchor="middle">✓</text>
<text x="90" y="203" fill="#002046" font-size="14" font-weight="600">Guter Gesundheitszustand</text>
<rect x="30" y="244" width="340" height="56" rx="10" fill="#f3f4f5"/>
<circle cx="62" cy="270" r="16" fill="#D4A017"/>
<text x="62" y="275" fill="white" font-size="15" font-weight="700" text-anchor="middle">✓</text>
<text x="90" y="275" fill="#002046" font-size="14" font-weight="600">Langfristig angestellt</text>
<rect x="30" y="316" width="340" height="56" rx="10" fill="#f3f4f5"/>
<circle cx="62" cy="342" r="16" fill="#D4A017"/>
<text x="62" y="347" fill="white" font-size="15" font-weight="700" text-anchor="middle">✓</text>
<text x="90" y="347" fill="#002046" font-size="14" font-weight="600">Wenig oder keine Kinder geplant</text>
<rect x="30" y="388" width="340" height="56" rx="10" fill="#f3f4f5"/>
<circle cx="62" cy="414" r="16" fill="#D4A017"/>
<text x="62" y="419" fill="white" font-size="15" font-weight="700" text-anchor="middle">✓</text>
<text x="90" y="419" fill="#002046" font-size="14" font-weight="600">Idealerweise unter 40 Jahre</text>

</svg>