<svg xmlns="http://www.w3.org/2000/svg" viewBox="0 0 920 460" width="920" height="460">
<defs><style>
@import url('https://fonts.googleapis.com/css2?family=Inter:wght@400;500;600;700;800&amp;display=swap');
text { font-family: 'Inter', system-ui, sans-serif; }
</style></defs>
<rect width="920" height="460" rx="12" fill="#FFFFFF"/>
<text x="460" y="42" fill="#002046" font-size="20" font-weight="700" text-anchor="middle">In 5 Schritten zur PKV</text>
<rect x="48" y="90" width="152" height="240" rx="10" fill="#f3f4f5"/>
<circle cx="124" cy="130" r="22" fill="#002046"/>
<text x="124" y="137" fill="white" font-size="16" font-weight="700" text-anchor="middle">1</text>
<text x="124" y="185" fill="#002046" font-size="13" font-weight="700" text-anchor="middle">Gehalt prüfen</text>
<text x="124" y="220" fill="#44474e" font-size="11" text-anchor="middle">Liegt dein Brutto</text>
<text x="124" y="238" fill="#44474e" font-size="11" text-anchor="middle">über 77.400 €?</text>
<line x1="200" y1="140" x2="216" y2="140" stroke="#D4A017" stroke-width="2"/>
<rect x="216" y="90" width="152" height="240" rx="10" fill="#f3f4f5"/>
<circle cx="292" cy="130" r="22" fill="#002046"/>
<text x="292" y="137" fill="white" font-size="16" font-weight="700" text-anchor="middle">2</text>
<text x="292" y="185" fill="#002046" font-size="13" font-weight="700" text-anchor="middle">Tarife vergleichen</text>
<text x="292" y="220" fill="#44474e" font-size="11" text-anchor="middle">Leistungen und</text>
<text x="292" y="238" fill="#44474e" font-size="11" text-anchor="middle">Beiträge prüfen</text>
<line x1="368" y1="140" x2="384" y2="140" stroke="#D4A017" stroke-width="2"/>
<rect x="384" y="90" width="152" height="240" rx="10" fill="#f3f4f5"/>
<circle cx="460" cy="130" r="22" fill="#002046"/>
<text x="460" y="137" fill="white" font-size="16" font-weight="700" text-anchor="middle">3</text>
<text x="460" y="185" fill="#002046" font-size="13" font-weight="700" text-anchor="middle">Risikovoranfrage</text>
<text x="460" y="220" fill="#44474e" font-size="11" text-anchor="middle">Anonym bei</text>
<text x="460" y="238" fill="#44474e" font-size="11" text-anchor="middle">Versicherern anfragen</text>
<line x1="536" y1="140" x2="552" y2="140" stroke="#D4A017" stroke-width="2"/>
<rect x="552" y="90" width="152" height="240" rx="10" fill="#f3f4f5"/>
<circle cx="628" cy="130" r="22" fill="#002046"/>
<text x="628" y="137" fill="white" font-size="16" font-weight="700" text-anchor="middle">4</text>
<text x="628" y="185" fill="#002046" font-size="13" font-weight="700" text-anchor="middle">Antrag stellen</text>
<text x="628" y="220" fill="#44474e" font-size="11" text-anchor="middle">Gesundheitsfragen</text>
<text x="628" y="238" fill="#44474e" font-size="11" text-anchor="middle">beantworten</text>
<line x1="704" y1="140" x2="720" y2="140" stroke="#D4A017" stroke-width="2"/>
<rect x="720" y="90" width="152" height="240" rx="10" fill="#f3f4f5"/>
<circle cx="796" cy="130" r="22" fill="#002046"/>
<text x="796" y="137" fill="white" font-size="16" font-weight="700" text-anchor="middle">5</text>
<text x="796" y="185" fill="#002046" font-size="13" font-weight="700" text-anchor="middle">GKV kündigen</text>
<text x="796" y="220" fill="#44474e" font-size="11" text-anchor="middle">Wechsel zum</text>
<text x="796" y="238" fill="#44474e" font-size="11" text-anchor="middle">1. Januar</text>

</svg>