<svg xmlns="http://www.w3.org/2000/svg" viewBox="0 0 400 720" width="400" height="720">
<defs><style>
@import url('https://fonts.googleapis.com/css2?family=Inter:wght@400;500;600;700;800&amp;display=swap');
text { font-family: 'Inter', system-ui, sans-serif; }
</style></defs>
<rect width="400" height="720" rx="12" fill="#FFFFFF"/>
<text x="200" y="36" fill="#002046" font-size="18" font-weight="700" text-anchor="middle">In 5 Schritten zur PKV</text>
<rect x="30" y="80" width="340" height="90" rx="10" fill="#f3f4f5"/>
<circle cx="74" cy="125" r="22" fill="#002046"/>
<text x="74" y="131" fill="white" font-size="16" font-weight="700" text-anchor="middle">1</text>
<text x="112" y="120" fill="#002046" font-size="14" font-weight="700">Gehalt prüfen</text>
<text x="112" y="139" fill="#44474e" font-size="11">Liegt dein Brutto über 77.400 €?</text>
<line x1="200" y1="170" x2="200" y2="190" stroke="#D4A017" stroke-width="2"/>
<rect x="30" y="190" width="340" height="90" rx="10" fill="#f3f4f5"/>
<circle cx="74" cy="235" r="22" fill="#002046"/>
<text x="74" y="241" fill="white" font-size="16" font-weight="700" text-anchor="middle">2</text>
<text x="112" y="230" fill="#002046" font-size="14" font-weight="700">Tarife vergleichen</text>
<text x="112" y="249" fill="#44474e" font-size="11">Leistungen und Beiträge prüfen</text>
<line x1="200" y1="280" x2="200" y2="300" stroke="#D4A017" stroke-width="2"/>
<rect x="30" y="300" width="340" height="90" rx="10" fill="#f3f4f5"/>
<circle cx="74" cy="345" r="22" fill="#002046"/>
<text x="74" y="351" fill="white" font-size="16" font-weight="700" text-anchor="middle">3</text>
<text x="112" y="340" fill="#002046" font-size="14" font-weight="700">Risikovoranfrage</text>
<text x="112" y="359" fill="#44474e" font-size="11">Anonym bei Versicherern anfragen</text>
<line x1="200" y1="390" x2="200" y2="410" stroke="#D4A017" stroke-width="2"/>
<rect x="30" y="410" width="340" height="90" rx="10" fill="#f3f4f5"/>
<circle cx="74" cy="455" r="22" fill="#002046"/>
<text x="74" y="461" fill="white" font-size="16" font-weight="700" text-anchor="middle">4</text>
<text x="112" y="450" fill="#002046" font-size="14" font-weight="700">Antrag stellen</text>
<text x="112" y="469" fill="#44474e" font-size="11">Gesundheitsfragen beantworten</text>
<line x1="200" y1="500" x2="200" y2="520" stroke="#D4A017" stroke-width="2"/>
<rect x="30" y="520" width="340" height="90" rx="10" fill="#f3f4f5"/>
<circle cx="74" cy="565" r="22" fill="#002046"/>
<text x="74" y="571" fill="white" font-size="16" font-weight="700" text-anchor="middle">5</text>
<text x="112" y="560" fill="#002046" font-size="14" font-weight="700">GKV kündigen</text>
<text x="112" y="579" fill="#44474e" font-size="11">Wechsel zum 1. Januar</text>

</svg>